<?xml version="1.0" encoding="UTF-8"?>
<!-- Generator: Adobe Illustrator 16.0.0, SVG Export Plug-In . SVG Version: 6.00 Build 0)  -->
<!DOCTYPE svg PUBLIC "-//W3C//DTD SVG 1.1//EN" "http://www.w3.org/Graphics/SVG/1.1/DTD/svg11.dtd">
<svg version="1.1" id="Layer_1" xmlns="http://www.w3.org/2000/svg" xmlns:xlink="http://www.w3.org/1999/xlink" x="0px" y="0px" width="512px" height="512px" viewBox="0 0 512 512" enable-background="new 0 0 512 512" xml:space="preserve">
<text transform="matrix(1 0 0 1 168.7834 543.8088)" fill="#FFFF00" font-family="'Verdana-Bold'" font-size="20">simpleicon.com</text>
<text transform="matrix(1 0 0 1 9.1936 567.8088)" fill="#FFFF00" font-family="'Verdana'" font-size="20">Collection Of Flat Icon, Symbols And Glyph Icons</text>
<g>
	<path d="M256,132.4c-68.157,0-123.6,55.451-123.6,123.6c0,68.153,55.447,123.6,123.6,123.6c68.153,0,123.6-55.446,123.6-123.6   C379.599,187.851,324.153,132.4,256,132.4z M219.801,303.545c-12.593,1.312-26.148-1.328-36.099-9.508   c-8.501-6.871-13.462-17.332-14.987-28.019c-1.951-13.435-0.245-28.031,7.581-39.43c9.133-13.865,26.671-20.226,42.801-18.259   c14.448,0.809,28.385,9.005,35.104,21.992c-6.896,3.5-13.684,7.186-20.548,10.755c-1.911-3.782-4.478-7.375-8.147-9.624   c-7.125-4.691-17.626-3.44-23.417,2.836c-5.202,5.886-6.276,14.122-6.341,21.678c0.032,7.688,1.521,15.978,6.904,21.812   c5.315,5.705,14.086,6.707,21.236,4.466c5.681-1.818,9.423-6.961,11.631-12.243c6.414,3.17,12.738,6.546,19.148,9.748   C247.595,292.537,234.39,301.852,219.801,303.545z M308.988,303.521c-13.796,1.537-28.896-1.971-38.874-12.07   c-7.81-7.709-11.725-18.584-12.613-29.362c-1.187-12.835,1.235-26.523,9.129-36.988c9.821-13.599,27.81-19.027,43.973-16.537   c13.619,1.376,26.49,9.463,32.811,21.735c-6.852,3.549-13.644,7.194-20.487,10.747c-2.141-4.212-5.194-8.188-9.487-10.36   c-8.03-4.381-19.425-1.662-24.12,6.345c-3.843,6.22-4.418,13.796-4.277,20.942c0.282,7.314,2.101,15.14,7.492,20.431   c5.496,5.271,14.054,6.039,21.042,3.686c5.436-1.907,9.045-6.904,11.157-12.063c6.458,3.106,12.763,6.522,19.172,9.709   C336.859,292.537,323.597,301.928,308.988,303.521z"/>
	<path d="M256,50C142.229,50,50,142.23,50,256s92.229,206,206,206s206-92.229,206-206S369.77,50,256,50z M256,410.5   c-85.192,0-154.5-69.308-154.5-154.5S170.807,101.5,256,101.5S410.5,170.808,410.5,256S341.192,410.5,256,410.5z"/>
</g>
</svg>