<?xml version="1.0" encoding="UTF-8"?>
<!-- Generator: Adobe Illustrator 18.1.1, SVG Export Plug-In . SVG Version: 6.00 Build 0)  -->
<!DOCTYPE svg PUBLIC "-//W3C//DTD SVG 1.1//EN" "http://www.w3.org/Graphics/SVG/1.1/DTD/svg11.dtd">
<svg version="1.1" xmlns="http://www.w3.org/2000/svg" xmlns:xlink="http://www.w3.org/1999/xlink" x="0px" y="0px" viewBox="0 0 64 64" enable-background="new 0 0 64 64" xml:space="preserve">
<g id="Layer_1" display="none">
	<g display="inline">
		<path fill="#FFFFFF" d="M32,58.5C17.4,58.5,5.5,46.6,5.5,32S17.4,5.5,32,5.5S58.5,17.4,58.5,32S46.6,58.5,32,58.5z"/>
		<path fill="#1F3244" d="M32,11c11.6,0,21,9.4,21,21s-9.4,21-21,21s-21-9.4-21-21S20.4,11,32,11 M32,0C14.3,0,0,14.3,0,32    s14.3,32,32,32s32-14.3,32-32S49.7,0,32,0L32,0z"/>
	</g>
	
		<text transform="matrix(1.1527 0 0 1 26.4097 44.4965)" display="inline" fill="#3E95BE" font-family="'Ubuntu-Bold'" font-size="33.5622">i</text>
	<polygon display="inline" fill="#FFFFFF" points="51.1,52.7 41,50.7 46.9,40.7  "/>
</g>
<g id="Layer_1_copy">
	<g>
		<path fill="#FFFFFF" d="M32,58.5C17.4,58.5,5.5,46.6,5.5,32S17.4,5.5,32,5.5S58.5,17.4,58.5,32S46.6,58.5,32,58.5z"/>
		<path fill="#F6666A" d="M32,11c11.6,0,21,9.4,21,21s-9.4,21-21,21s-21-9.4-21-21S20.4,11,32,11 M32,0C14.3,0,0,14.3,0,32    s14.3,32,32,32s32-14.3,32-32S49.7,0,32,0L32,0z"/>
	</g>
	<g>
		<path fill="#1F3244" d="M35.5,40.8c0,1-0.4,1.7-1.1,2.3s-1.6,0.8-2.5,0.8c-0.9,0-1.8-0.3-2.5-0.8c-0.7-0.5-1.1-1.3-1.1-2.3    s0.4-1.7,1.1-2.3c0.7-0.5,1.6-0.8,2.5-0.8c0.9,0,1.8,0.3,2.5,0.8S35.5,39.9,35.5,40.8z M35,26.2c0,1.8-0.1,3.5-0.2,5.1    s-0.4,3.2-0.6,4.8h-4.4c-0.3-1.6-0.5-3.2-0.6-4.8c-0.2-1.6-0.3-3.3-0.3-5.1v-6H35V26.2z"/>
	</g>
	<polygon fill="#FFFFFF" points="51.1,52.7 41,50.7 46.9,40.7  "/>
</g>
</svg>