<svg id="Content" xmlns="http://www.w3.org/2000/svg" xmlns:xlink="http://www.w3.org/1999/xlink" viewBox="0 0 260.75 258.81"><defs><clipPath id="clip-path" transform="translate(-884.25 -271.19)"><path d="M1117.76,354.13a29.51,29.51,0,0,1,7.51,11.15,23.33,23.33,0,0,1,.34,14.74c0,0.16-.1.31-0.15,0.47v0c-2.34,7.47-8,14.5-16,20.66A89.4,89.4,0,0,1,1095,410.1l-6-6.85,10.39-22.06-5.35-12.49Z" style="fill:none;clip-rule:evenodd"/></clipPath><clipPath id="clip-path-2" transform="translate(-884.25 -271.19)"><path d="M929.52,374.09l39.2-10,42.12,23.23,34.15-9.9,18.09,13.63,8.46-.91,0.72-7.51,1-10.88-9.23-24.53L1084,320.62c-15.48-22.77-40.86-38.64-69.58-40.6l-0.31,0c-47.33-3.08-85.7,32.8-85.7,80.14,0,0.22,0,.44,0,0.67v0.31A87.47,87.47,0,0,0,929.52,374.09Z" style="fill:none;clip-rule:evenodd"/></clipPath><clipPath id="clip-path-3" transform="translate(-884.25 -271.19)"><polygon points="1025.06 405.47 1040.11 401.58 1063 408.88 1060.13 425.55 1035.37 425.25 1025.06 405.47" style="fill:none;clip-rule:evenodd"/></clipPath><clipPath id="clip-path-4" transform="translate(-884.25 -271.19)"><path d="M901.87,389.06L885,391.88c0.09,0.45.21,0.9,0.33,1.35a30.93,30.93,0,0,0,7.47,12.91Z" style="fill:none;clip-rule:evenodd"/></clipPath><clipPath id="clip-path-5" transform="translate(-884.25 -271.19)"><path d="M923.21,431.35l17.51-10.59-3.61-18L917.53,406l-0.28,0-8,15.08,0,0a47.06,47.06,0,0,0,10.06,8Q921.19,430.31,923.21,431.35Z" style="fill:none;clip-rule:evenodd"/></clipPath><clipPath id="clip-path-6" transform="translate(-884.25 -271.19)"><polygon points="998.32 481.34 1008.2 442.79 1015.55 440.89 1025.08 459.17 1025.08 459.17 998.32 481.34" style="fill:none;clip-rule:evenodd"/></clipPath><clipPath id="clip-path-7" transform="translate(-884.25 -271.19)"><path d="M1046,478.55q-1.39,0-2.76,0h-0.1l29.66-28.19,0.23,0,25.31,1.79,2.89,3.89,2.91,3.92c-12.86,9.78-29.93,16.45-48.58,18.17q-4.69.43-9.49,0.44H1046Z" style="fill:none;clip-rule:evenodd"/></clipPath><clipPath id="clip-path-8" transform="translate(-884.25 -271.19)"><polygon points="964.8 409.89 964.8 409.89 964.8 409.88 962.84 392.86 963.04 392.94 992.48 400.37 989.33 411.38 989.33 411.39 964.8 409.89" style="fill:none;clip-rule:evenodd"/></clipPath><clipPath id="clip-path-9" transform="translate(-884.25 -271.19)"><path d="M1110.46,442.71l16-1.68c-0.09-.45-0.2-0.9-0.32-1.35-1.23-4.59-6.37-10.08-14.07-12.34Z" style="fill:none;clip-rule:evenodd"/></clipPath><clipPath id="clip-path-10" transform="translate(-884.25 -271.19)"><path d="M977.13,467.19c-18.76-.52-35.28-6.14-47.34-15.06L948,437l37.09,2.26Z" style="fill:none;clip-rule:evenodd"/></clipPath></defs><title>iorad-error-page-illustration</title><polygon points="117.46 229.77 117.46 241.8 107.13 253.09 97.25 257.04 89.53 235.81 92.54 228.53 117.46 229.77" style="fill-rule:evenodd;opacity:0.2"/><polygon points="228.59 196.09 228.59 207.84 227.37 208.56 226.13 209.28 224.86 209.97 223.57 210.65 222.26 211.32 220.92 211.97 219.57 212.6 218.19 213.22 216.79 213.82 215.38 214.4 213.94 214.97 212.48 215.51 211 216.04 209.51 216.56 208 217.05 206.47 217.52 204.92 217.98 203.36 218.42 201.78 218.83 200.18 219.23 198.57 219.61 196.95 219.97 195.31 220.3 193.66 220.62 191.99 220.92 190.31 221.19 188.62 221.44 186.92 221.67 185.21 221.88 183.49 222.07 181.75 222.23 180.01 222.37 179.42 222.41 178.84 222.45 178.25 222.49 177.66 222.52 177.07 222.56 176.48 222.59 175.88 222.61 175.29 222.63 174.7 222.66 174.1 222.67 173.51 222.69 172.91 222.7 172.31 222.71 171.72 222.72 171.12 222.72 170.52 222.72 170.45 222.72 170.1 222.72 169.76 222.72 169.41 222.72 169.07 222.72 168.72 222.71 168.38 222.71 168.03 222.7 167.69 222.69 167.59 222.69 167.59 210.94 197.25 188.39 197.48 188.41 222.79 189.84 225.68 192.96 228.59 196.09" style="fill-rule:evenodd;opacity:0.2"/><polygon points="149.41 194.77 149.41 206.52 116.34 222.96 120.52 210.6 130.4 179.76 137.75 178.24 149.41 194.77" style="fill-rule:evenodd;opacity:0.2"/><polygon points="72.09 176.18 109.18 177.99 109.18 189.74 101.18 212.05 99.43 212 97.69 211.93 95.97 211.83 94.26 211.71 92.56 211.56 90.88 211.4 89.22 211.21 87.57 211 85.94 210.77 84.32 210.51 82.72 210.24 81.14 209.94 79.58 209.62 78.03 209.29 76.51 208.93 75 208.55 73.51 208.15 72.05 207.74 70.6 207.3 69.17 206.85 67.77 206.37 66.39 205.88 65.03 205.37 63.69 204.84 62.37 204.3 61.08 203.74 59.81 203.16 58.57 202.56 57.35 201.95 56.16 201.32 54.99 200.67 53.84 200.01 53.84 188.26 72.09 176.18" style="fill-rule:evenodd;opacity:0.2"/><polygon points="59.58 142.02 63.19 156.46 63.18 166.53 38.96 174.84 31.7 155.07 39.72 144.68 39.99 144.64 59.58 142.02" style="fill-rule:evenodd;opacity:0.2"/><polygon points="86.7 128.67 116.97 132.28 114.99 142.19 111.83 151 103.1 152.57 86.48 152.12 84.52 138.51 86.49 128.61 86.7 128.67" style="fill-rule:evenodd;opacity:0.2"/><path d="M993.67,426.13" transform="translate(-884.25 -271.19)" style="fill-rule:evenodd;opacity:0.2"/><polygon points="23.29 138.51 8.55 149.63 4.3 129.24 23.3 126.67 23.29 138.51" style="fill-rule:evenodd;opacity:0.2"/><path d="M1117.61,432.92c7.7,1.81,12.84,6.2,14.06,9.87,0.12,0.36.23,0.71,0.32,1.08v10.3l-16,1.34V445.2Z" transform="translate(-884.25 -271.19)" style="fill-rule:evenodd;opacity:0.2"/><polygon points="164.55 139.13 188.33 140.85 188.33 152.6 185.46 165.94 176 169.97 159.82 169.81 149.5 153.99 149.5 142.24 164.55 139.13" style="fill-rule:evenodd;opacity:0.2"/><path d="M1123.29,369.61c14,10.82,9.76,32.21-3.09,43.2-6.07,5.2-13.89,9.25-21.8,12.45l-5.53-1.56c2.73-13.68.38-12.57,7.89-25.33-4.42-8.25-3.69-4.46-1.16-17.1Z" transform="translate(-884.25 -271.19)" style="fill-rule:evenodd;opacity:0.2"/><path d="M1006.14,362.88c46.38,3.53,84,13.38,84,22s-37.6,12.75-84,9.22-84-13.38-84-22S959.75,359.35,1006.14,362.88Z" transform="translate(-884.25 -271.19)" style="fill-rule:evenodd;opacity:0.2"/><path d="M932.76,346.5c-11,.53-24.25,9.75-30.66,19.93" transform="translate(-884.25 -271.19)" style="fill:none;stroke:#20201e;stroke-linecap:round;stroke-linejoin:round;stroke-width:2.4999000000000002px;fill-rule:evenodd"/><circle cx="900.48" cy="370.37" r="4.79" transform="translate(-591.99 859.51) rotate(-73.7)" style="fill:#20201e"/><polygon points="242.04 105.94 239.87 119.54 239.78 120.01 239.68 120.49 239.57 120.97 239.46 121.45 239.33 121.94 239.19 122.42 239.18 122.48 239.16 122.54 239.14 122.59 239.12 122.65 239.1 122.71 239.08 122.77 239.06 122.83 239.04 122.89 241.22 109.29 241.24 109.23 241.25 109.17 241.27 109.12 241.29 109.06 241.31 109 241.33 108.94 241.35 108.88 241.36 108.82 241.5 108.34 241.63 107.86 241.74 107.38 241.85 106.89 241.95 106.42 242.04 105.94" style="fill:#214c61;stroke:#20201e;stroke-linecap:round;stroke-linejoin:round;stroke-width:1.4998px;fill-rule:evenodd"/><polygon points="241.22 109.29 239.04 122.89 239.03 122.92 241.2 109.33 241.22 109.29" style="fill:#214c61;stroke:#20201e;stroke-linecap:round;stroke-linejoin:round;stroke-width:1.4998px;fill-rule:evenodd"/><polygon points="241.2 109.33 239.03 122.92 238.81 123.62 238.56 124.32 238.29 125.02 238 125.7 237.7 126.39 237.37 127.08 237.03 127.76 236.67 128.44 236.3 129.11 235.9 129.79 235.49 130.46 235.06 131.12 234.61 131.78 234.14 132.44 233.66 133.09 233.16 133.75 232.65 134.39 232.12 135.04 231.57 135.68 231 136.31 230.42 136.94 229.83 137.57 229.22 138.19 228.59 138.81 227.95 139.42 227.29 140.03 226.62 140.64 225.93 141.24 225.23 141.83 224.52 142.42 223.78 143.01 223.04 143.59 222.65 143.89 222.25 144.19 221.84 144.49 221.44 144.79 221.03 145.08 220.61 145.38 220.19 145.67 219.77 145.97 219.35 146.26 218.92 146.54 218.49 146.83 218.05 147.12 217.61 147.4 217.17 147.69 216.72 147.97 216.27 148.25 215.82 148.53 215.36 148.8 214.9 149.08 214.44 149.35 213.97 149.62 213.5 149.89 213.03 150.16 212.55 150.43 212.07 150.69 211.59 150.96 211.1 151.22 210.62 151.48 210.12 151.74 209.63 152 209.13 152.25 208.63 152.5 210.8 138.91 211.3 138.66 211.8 138.4 212.29 138.14 212.78 137.88 213.27 137.62 213.76 137.36 214.24 137.1 214.72 136.83 215.2 136.57 215.67 136.3 216.14 136.03 216.61 135.75 217.07 135.48 217.53 135.21 217.99 134.93 218.44 134.65 218.89 134.37 219.34 134.09 219.78 133.81 220.22 133.52 220.66 133.24 221.09 132.95 221.52 132.66 221.94 132.37 222.37 132.08 222.78 131.78 223.2 131.49 223.61 131.19 224.01 130.89 224.42 130.59 224.82 130.29 225.21 129.99 225.96 129.41 226.69 128.83 227.4 128.24 228.1 127.64 228.79 127.04 229.46 126.44 230.12 125.83 230.76 125.21 231.39 124.59 232 123.97 232.59 123.34 233.17 122.72 233.74 122.08 234.29 121.44 234.82 120.8 235.33 120.15 235.83 119.5 236.31 118.84 236.78 118.19 237.23 117.52 237.66 116.86 238.07 116.19 238.47 115.52 238.84 114.84 239.2 114.16 239.54 113.48 239.87 112.8 240.17 112.11 240.46 111.42 240.73 110.72 240.97 110.03 241.2 109.33" style="fill:#214c61;stroke:#20201e;stroke-linecap:round;stroke-linejoin:round;stroke-width:1.4998px;fill-rule:evenodd"/><polygon points="210.8 138.91 208.63 152.5 202.61 145.66 204.78 132.06 210.8 138.91" style="fill:#214c61;stroke:#20201e;stroke-linecap:round;stroke-linejoin:round;stroke-width:1.4998px;fill-rule:evenodd"/><polygon points="215.17 110 213 123.59 207.65 111.1 209.82 97.51 215.17 110" style="fill:#4b7187;stroke:#20201e;stroke-linecap:round;stroke-linejoin:round;stroke-width:1.4998px;fill-rule:evenodd"/><path d="M1117.76,354.13a29.51,29.51,0,0,1,7.51,11.15,23.33,23.33,0,0,1,.34,14.74c0,0.16-.1.31-0.15,0.47v0c-2.34,7.47-8,14.5-16,20.66A89.4,89.4,0,0,1,1095,410.1l-6-6.85,10.39-22.06-5.35-12.49Z" transform="translate(-884.25 -271.19)" style="fill:#e4e3d1;fill-rule:evenodd"/><g style="clip-path:url(#clip-path)"><path d="M1028.9,424.74c-46,0-77.55-19.89-70.59-44.48h83.62Z" transform="translate(-884.25 -271.19)" style="fill:#61a86d;fill-rule:evenodd"/><path d="M1125.54,380.26c-7.44,24.58-50.59,44.47-96.61,44.48h0l13-44.48h83.62Z" transform="translate(-884.25 -271.19)" style="fill:#2e6095;fill-rule:evenodd"/><path d="M1041.92,380.26H958.3l0-.11,0-.12c7.23-24.7,50.53-44.72,96.71-44.72Z" transform="translate(-884.25 -271.19)" style="fill:#cd5b55;fill-rule:evenodd"/><path d="M1055.08,335.3h0.21c46.07,0.06,77.54,20.06,70.32,44.72l-0.07.22v0h-83.62Z" transform="translate(-884.25 -271.19)" style="fill:#71bbe8;fill-rule:evenodd"/><path d="M1051.73,346.76c34.34,0,57.82,14.89,52.45,33.25s-37.57,33.26-71.92,33.26S974.44,398.38,979.81,380,1017.38,346.76,1051.73,346.76Z" transform="translate(-884.25 -271.19)" style="fill:#214c61;stroke:#20201e;stroke-linecap:round;stroke-linejoin:round;stroke-width:1.4998px;fill-rule:evenodd"/><path d="M1045.49,368.08c12.32,0,20.75,5.34,18.82,11.94S1050.82,392,1038.5,392s-20.75-5.34-18.82-11.94S1033.16,368.08,1045.49,368.08Z" transform="translate(-884.25 -271.19)" style="fill:#fff;fill-rule:evenodd"/><path d="M1043.58,374.59c5.6,0,9.43,2.43,8.56,5.43s-6.13,5.43-11.73,5.43S1031,383,1031.85,380,1038,374.59,1043.58,374.59Z" transform="translate(-884.25 -271.19)" style="fill:#20201e;fill-rule:evenodd"/></g><path d="M1117.76,354.13a29.51,29.51,0,0,1,7.51,11.15,23.33,23.33,0,0,1,.34,14.74c0,0.16-.1.31-0.15,0.47v0c-2.34,7.47-8,14.5-16,20.66A89.4,89.4,0,0,1,1095,410.1l-6-6.85,10.39-22.06-5.35-12.49Z" transform="translate(-884.25 -271.19)" style="fill:none;stroke:#20201e;stroke-linecap:round;stroke-linejoin:round;stroke-width:1.4998px;fill-rule:evenodd"/><polygon points="187.29 118.98 195.64 111.11 196.36 103.6 188.01 111.48 187.29 118.98" style="fill:#214c61;stroke:#20201e;stroke-linecap:round;stroke-linejoin:round;stroke-width:1.4998px;fill-rule:evenodd"/><polygon points="188.01 111.48 196.36 103.6 197.4 92.72 189.05 100.59 188.01 111.48" style="fill:#214c61;stroke:#20201e;stroke-linecap:round;stroke-linejoin:round;stroke-width:1.4998px;fill-rule:evenodd"/><polygon points="189.05 100.59 197.4 92.72 188.17 68.19 179.82 76.06 189.05 100.59" style="fill:#214c61;stroke:#20201e;stroke-linecap:round;stroke-linejoin:round;stroke-width:1.4998px;fill-rule:evenodd"/><polygon points="179.82 76.06 188.17 68.19 208.08 41.55 199.73 49.42 179.82 76.06" style="fill:#214c61;stroke:#20201e;stroke-linecap:round;stroke-linejoin:round;stroke-width:1.4998px;fill-rule:evenodd"/><polygon points="199.73 49.42 208.08 41.55 206.6 39.44 205.06 37.37 203.47 35.34 201.82 33.35 200.12 31.41 198.37 29.52 196.57 27.68 194.72 25.88 192.81 24.14 190.87 22.44 188.87 20.8 186.83 19.22 184.75 17.69 182.63 16.22 180.46 14.8 178.25 13.45 176.01 12.16 173.72 10.93 171.41 9.76 169.05 8.66 166.66 7.62 164.24 6.65 161.79 5.75 159.31 4.92 156.8 4.16 154.26 3.48 151.69 2.86 149.1 2.32 146.48 1.86 143.84 1.48 141.18 1.17 138.5 0.95 130.15 8.82 132.83 9.05 135.49 9.35 138.13 9.73 140.75 10.2 143.34 10.73 145.91 11.35 148.45 12.03 150.96 12.79 153.44 13.62 155.89 14.52 158.31 15.49 160.7 16.53 163.06 17.63 165.38 18.8 167.66 20.03 169.9 21.32 172.11 22.68 174.28 24.09 176.4 25.56 178.48 27.09 180.52 28.68 182.51 30.32 184.46 32.01 186.37 33.75 188.22 35.55 190.02 37.39 191.77 39.28 193.47 41.23 195.12 43.21 196.71 45.24 198.25 47.31 199.73 49.42" style="fill:#214c61;stroke:#20201e;stroke-linecap:round;stroke-linejoin:round;stroke-width:1.4998px;fill-rule:evenodd"/><polygon points="130.15 8.82 138.5 0.95 138.46 0.94 138.42 0.94 138.38 0.94 138.35 0.94 138.31 0.93 138.27 0.93 138.23 0.93 138.19 0.93 129.84 8.8 129.88 8.8 129.92 8.8 129.96 8.8 130 8.81 130.03 8.81 130.07 8.81 130.11 8.82 130.15 8.82" style="fill:#214c61;stroke:#20201e;stroke-linecap:round;stroke-linejoin:round;stroke-width:1.4998px;fill-rule:evenodd"/><polygon points="129.84 8.8 138.19 0.93 133.78 0.75 129.43 0.8 125.14 1.06 120.92 1.54 116.77 2.23 112.71 3.12 108.73 4.21 104.83 5.49 101.04 6.96 97.34 8.62 93.75 10.45 90.27 12.45 86.92 14.62 83.68 16.95 80.57 19.45 72.22 27.32 75.33 24.83 78.56 22.49 81.92 20.32 85.4 18.32 88.99 16.49 92.69 14.84 96.48 13.36 100.38 12.08 104.36 10.99 108.42 10.1 112.57 9.42 116.79 8.94 121.08 8.67 125.43 8.62 129.84 8.8" style="fill:#214c61;stroke:#20201e;stroke-linecap:round;stroke-linejoin:round;stroke-width:1.4998px;fill-rule:evenodd"/><path d="M929.52,374.09l39.2-10,42.12,23.23,34.15-9.9,18.09,13.63,8.46-.91,0.72-7.51,1-10.88-9.23-24.53L1084,320.62c-15.48-22.77-40.86-38.64-69.58-40.6l-0.31,0c-47.33-3.08-85.7,32.8-85.7,80.14,0,0.22,0,.44,0,0.67v0.31A87.47,87.47,0,0,0,929.52,374.09Z" transform="translate(-884.25 -271.19)" style="fill:#e4e3d1;fill-rule:evenodd"/><g style="clip-path:url(#clip-path-2)"><path d="M1014.09,451.4c-47.18-3.06-85.45-43.67-85.7-90.81l85.7,5.57V451.4Z" transform="translate(-884.25 -271.19)" style="fill:#61a86d;fill-rule:evenodd"/><path d="M1099.79,371.72c-0.25,47.09-38.5,82.73-85.67,79.68h0V366.15h0.12Z" transform="translate(-884.25 -271.19)" style="fill:#2e6095;fill-rule:evenodd"/><path d="M1014.09,366.15l-85.7-5.57v-0.22c0-.08,0-0.16,0-0.24,0-47.33,38.37-83.21,85.7-80.14v86.16Z" transform="translate(-884.25 -271.19)" style="fill:#cd5b55;fill-rule:evenodd"/><path d="M1014.09,280l0.22,0c47.23,3.19,85.48,44,85.48,91.25,0,0.14,0,.29,0,0.43v0l-85.57-5.56h-0.12V280Z" transform="translate(-884.25 -271.19)" style="fill:#71bbe8;fill-rule:evenodd"/><path d="M1014.09,302c35.2,2.29,63.73,32.67,63.73,67.87s-28.53,61.87-63.73,59.59-63.73-32.67-63.73-67.87S978.9,299.68,1014.09,302Z" transform="translate(-884.25 -271.19)" style="fill:#214c61;stroke:#20201e;stroke-linecap:round;stroke-linejoin:round;stroke-width:1.4998px;fill-rule:evenodd"/><path d="M1014.09,342.82A24.76,24.76,0,0,1,1037,367.18a21.17,21.17,0,0,1-22.87,21.39,24.76,24.76,0,0,1-22.87-24.36A21.17,21.17,0,0,1,1014.09,342.82Z" transform="translate(-884.25 -271.19)" style="fill:#fff;fill-rule:evenodd"/><path d="M1014.09,355.3a11.25,11.25,0,0,1,10.4,11.07,9.62,9.62,0,0,1-10.4,9.72A11.26,11.26,0,0,1,1003.7,365,9.62,9.62,0,0,1,1014.09,355.3Z" transform="translate(-884.25 -271.19)" style="fill:#20201e;fill-rule:evenodd"/></g><path d="M929.52,374.09l39.2-10,42.12,23.23,34.15-9.9,18.09,13.63,8.46-.91,0.72-7.51,1-10.88-9.23-24.53L1084,320.62c-15.48-22.77-40.86-38.64-69.58-40.6l-0.31,0c-47.33-3.08-85.7,32.8-85.7,80.14,0,0.22,0,.44,0,0.67v0.31A87.47,87.47,0,0,0,929.52,374.09Z" transform="translate(-884.25 -271.19)" style="fill:none;stroke:#20201e;stroke-linecap:round;stroke-linejoin:round;stroke-width:1.4998px;fill-rule:evenodd"/><polygon points="178.75 137.68 178.75 152.37 175.88 169.05 175.88 154.36 178.75 137.68" style="fill:#214c61;stroke:#20201e;stroke-linecap:round;stroke-linejoin:round;stroke-width:1.4998px;fill-rule:evenodd"/><polygon points="175.88 154.36 175.88 169.05 151.12 168.74 151.12 154.06 175.88 154.36" style="fill:#214c61;stroke:#20201e;stroke-linecap:round;stroke-linejoin:round;stroke-width:1.4998px;fill-rule:evenodd"/><polygon points="151.12 154.06 151.12 168.74 140.81 148.96 140.81 134.27 151.12 154.06" style="fill:#4b7187;stroke:#20201e;stroke-linecap:round;stroke-linejoin:round;stroke-width:1.4998px;fill-rule:evenodd"/><polygon points="140.81 134.27 155.86 130.38 178.75 137.68 175.88 154.36 151.12 154.05 140.81 134.27" style="fill:#e4e3d1;fill-rule:evenodd"/><g style="clip-path:url(#clip-path-3)"><path d="M1007.79,452c-41.92,0-73.48-25.3-70.68-56.56h76.14Z" transform="translate(-884.25 -271.19)" style="fill:#61a86d;fill-rule:evenodd"/><path d="M1089.4,395.41c-3.24,31.26-39.67,56.55-81.58,56.56h0l5.46-56.56h76.15Z" transform="translate(-884.25 -271.19)" style="fill:#2e6095;fill-rule:evenodd"/><path d="M1013.25,395.41H937.11v-0.15c0-.05,0-0.11,0-0.16,3-31.41,39.59-56.87,81.64-56.87Z" transform="translate(-884.25 -271.19)" style="fill:#cd5b55;fill-rule:evenodd"/><path d="M1018.78,338.24h0.2c42,0.08,73.49,25.51,70.46,56.87,0,0.1,0,.19,0,0.28v0h-76.15Z" transform="translate(-884.25 -271.19)" style="fill:#71bbe8;fill-rule:evenodd"/><path d="M1017.37,352.82c31.27,0,54.8,18.93,52.54,42.29s-29.44,42.29-60.71,42.29-54.8-18.93-52.54-42.29S986.1,352.82,1017.37,352.82Z" transform="translate(-884.25 -271.19)" style="fill:#214c61;stroke:#20201e;stroke-linecap:round;stroke-linejoin:round;stroke-width:1.4998px;fill-rule:evenodd"/><path d="M1014.75,379.93c11.23,0,19.67,6.8,18.86,15.18s-10.57,15.18-21.79,15.18-19.67-6.8-18.86-15.18S1003.53,379.93,1014.75,379.93Z" transform="translate(-884.25 -271.19)" style="fill:#fff;fill-rule:evenodd"/><path d="M1014,388.21c5.1,0,8.94,3.09,8.57,6.9s-4.8,6.9-9.91,6.9-8.94-3.09-8.57-6.9S1008.85,388.21,1014,388.21Z" transform="translate(-884.25 -271.19)" style="fill:#20201e;fill-rule:evenodd"/></g><polygon points="140.81 134.27 155.86 130.38 178.75 137.68 175.88 154.36 151.12 154.05 140.81 134.27" style="fill:none;stroke:#20201e;stroke-linecap:round;stroke-linejoin:round;stroke-width:1.4998px;fill-rule:evenodd"/><polygon points="0.75 120.69 0.75 135.38 0.79 135.54 0.82 135.71 0.86 135.88 0.9 136.05 0.94 136.22 0.99 136.38 1.03 136.55 1.08 136.72 1.08 122.03 1.03 121.87 0.99 121.7 0.94 121.53 0.9 121.36 0.86 121.19 0.82 121.03 0.79 120.86 0.75 120.69" style="fill:#214c61;stroke:#20201e;stroke-linecap:round;stroke-linejoin:round;stroke-width:1.4998px;fill-rule:evenodd"/><polygon points="1.08 122.03 1.08 136.72 1.2 137.15 1.32 137.58 1.46 138 1.6 138.43 1.75 138.85 1.91 139.28 2.07 139.7 2.24 140.12 2.42 140.53 2.61 140.95 2.81 141.36 3.01 141.77 3.22 142.19 3.44 142.59 3.66 143 3.89 143.41 4.13 143.81 4.38 144.21 4.63 144.61 4.89 145.01 5.16 145.41 5.43 145.8 5.71 146.19 6 146.58 6.29 146.97 6.6 147.36 6.91 147.74 7.22 148.12 7.54 148.5 7.87 148.88 8.21 149.26 8.55 149.63 8.55 134.94 8.21 134.57 7.87 134.19 7.54 133.82 7.22 133.44 6.91 133.05 6.6 132.67 6.29 132.28 6 131.9 5.71 131.5 5.43 131.11 5.16 130.72 4.89 130.32 4.63 129.92 4.38 129.52 4.13 129.12 3.89 128.72 3.66 128.31 3.44 127.91 3.22 127.5 3.01 127.09 2.81 126.67 2.61 126.26 2.42 125.84 2.24 125.43 2.07 125.01 1.91 124.59 1.75 124.17 1.6 123.74 1.46 123.32 1.32 122.89 1.2 122.46 1.08 122.03" style="fill:#4b7187;stroke:#20201e;stroke-linecap:round;stroke-linejoin:round;stroke-width:1.4998px;fill-rule:evenodd"/><polygon points="8.55 134.94 8.55 149.63 17.62 132.55 17.62 117.87 8.55 134.94" style="fill:#214c61;stroke:#20201e;stroke-linecap:round;stroke-linejoin:round;stroke-width:1.4998px;fill-rule:evenodd"/><path d="M901.87,389.06L885,391.88c0.09,0.45.21,0.9,0.33,1.35a30.93,30.93,0,0,0,7.47,12.91Z" transform="translate(-884.25 -271.19)" style="fill:#e4e3d1;fill-rule:evenodd"/><g style="clip-path:url(#clip-path-4)"><path d="M964.91,429.7c-46.62,0-82.49-20.08-80.34-44.89h84.67Z" transform="translate(-884.25 -271.19)" style="fill:#61a86d;fill-rule:evenodd"/><path d="M1053.92,384.81c-2.64,24.81-42.38,44.88-89,44.89h0l4.34-44.89h84.67Z" transform="translate(-884.25 -271.19)" style="fill:#2e6095;fill-rule:evenodd"/><path d="M969.25,384.81H884.58v-0.12s0-.08,0-0.13c2.41-24.93,42.27-45.13,89-45.13Z" transform="translate(-884.25 -271.19)" style="fill:#cd5b55;fill-rule:evenodd"/><path d="M973.63,339.43h0.22c46.66,0.06,82.51,20.24,80.1,45.13,0,0.08,0,.15,0,0.23v0H969.25Z" transform="translate(-884.25 -271.19)" style="fill:#71bbe8;fill-rule:evenodd"/><path d="M972.52,351c34.78,0,61.51,15,59.72,33.56s-31.43,33.56-66.21,33.56-61.52-15-59.72-33.56S937.74,351,972.52,351Z" transform="translate(-884.25 -271.19)" style="fill:#214c61;stroke:#20201e;stroke-linecap:round;stroke-linejoin:round;stroke-width:1.4998px;fill-rule:evenodd"/><path d="M970.44,372.52c12.48,0,22.08,5.39,21.44,12s-11.28,12-23.76,12-22.08-5.39-21.44-12S958,372.52,970.44,372.52Z" transform="translate(-884.25 -271.19)" style="fill:#fff;fill-rule:evenodd"/><path d="M969.8,379.09c5.67,0,10,2.45,9.74,5.48s-5.13,5.48-10.8,5.48-10-2.45-9.74-5.48S964.13,379.09,969.8,379.09Z" transform="translate(-884.25 -271.19)" style="fill:#20201e;fill-rule:evenodd"/></g><path d="M901.87,389.06L885,391.88c0.09,0.45.21,0.9,0.33,1.35a30.93,30.93,0,0,0,7.47,12.91Z" transform="translate(-884.25 -271.19)" style="fill:none;stroke:#20201e;stroke-linecap:round;stroke-linejoin:round;stroke-width:1.4998px;fill-rule:evenodd"/><polygon points="38.96 160.16 42.54 173.8 60.05 163.22 56.47 149.57 38.96 160.16" style="fill:#214c61;stroke:#20201e;stroke-linecap:round;stroke-linejoin:round;stroke-width:1.4998px;fill-rule:evenodd"/><polygon points="56.47 149.57 60.05 163.22 56.44 145.17 52.86 131.52 56.47 149.57" style="fill:#214c61;stroke:#20201e;stroke-linecap:round;stroke-linejoin:round;stroke-width:1.4998px;fill-rule:evenodd"/><polygon points="24.99 149.93 28.56 163.57 28.61 163.62 25.03 149.97 24.99 149.93" style="fill:#214c61;stroke:#20201e;stroke-linecap:round;stroke-linejoin:round;stroke-width:1.4998px;fill-rule:evenodd"/><polygon points="25.03 149.97 28.61 163.62 29.12 164.16 29.65 164.7 30.2 165.23 30.76 165.76 31.34 166.28 31.93 166.8 32.54 167.31 33.16 167.81 33.8 168.31 34.45 168.8 35.12 169.29 35.8 169.77 36.49 170.25 37.2 170.71 37.93 171.18 38.66 171.63 39.13 171.91 39.6 172.19 40.08 172.47 40.56 172.74 41.05 173.01 41.54 173.28 42.04 173.54 42.54 173.8 38.96 160.16 38.46 159.89 37.96 159.63 37.47 159.36 36.98 159.09 36.5 158.82 36.02 158.54 35.55 158.26 35.09 157.98 34.35 157.53 33.63 157.07 32.92 156.6 32.22 156.12 31.54 155.64 30.87 155.16 30.22 154.66 29.58 154.16 28.96 153.66 28.35 153.15 27.76 152.63 27.18 152.11 26.62 151.59 26.07 151.05 25.54 150.51 25.03 149.97" style="fill:#214c61;stroke:#20201e;stroke-linecap:round;stroke-linejoin:round;stroke-width:1.4998px;fill-rule:evenodd"/><path d="M923.21,431.35l17.51-10.59-3.61-18L917.53,406l-0.28,0-8,15.08,0,0a47.06,47.06,0,0,0,10.06,8Q921.19,430.31,923.21,431.35Z" transform="translate(-884.25 -271.19)" style="fill:#e4e3d1;fill-rule:evenodd"/><g style="clip-path:url(#clip-path-5)"><path d="M972.92,441.93c-41.16,0-72.84-17.73-70.94-39.64h74.77Z" transform="translate(-884.25 -271.19)" style="fill:#61a86d;fill-rule:evenodd"/><path d="M1051.52,402.29c-2.33,21.91-37.42,39.63-78.57,39.64h0l3.83-39.64h74.77Z" transform="translate(-884.25 -271.19)" style="fill:#2e6095;fill-rule:evenodd"/><path d="M976.75,402.29H902v-0.21c2.13-22,37.33-39.85,78.63-39.85Z" transform="translate(-884.25 -271.19)" style="fill:#cd5b55;fill-rule:evenodd"/><path d="M980.62,362.22h0.19c41.2,0.06,72.86,17.88,70.73,39.85,0,0.07,0,.13,0,0.2H976.75Z" transform="translate(-884.25 -271.19)" style="fill:#71bbe8;fill-rule:evenodd"/><path d="M979.63,372.44c30.71,0,54.32,13.27,52.74,29.64s-27.76,29.63-58.46,29.63-54.32-13.27-52.74-29.63S948.92,372.44,979.63,372.44Z" transform="translate(-884.25 -271.19)" style="fill:#214c61;stroke:#20201e;stroke-linecap:round;stroke-linejoin:round;stroke-width:1.4998px;fill-rule:evenodd"/><path d="M977.79,391.44c11,0,19.5,4.76,18.93,10.64s-10,10.64-21,10.64-19.5-4.76-18.93-10.64S966.77,391.44,977.79,391.44Z" transform="translate(-884.25 -271.19)" style="fill:#fff;fill-rule:evenodd"/><path d="M977.23,397.24c5,0,8.86,2.17,8.6,4.84s-4.53,4.83-9.54,4.83-8.86-2.16-8.6-4.83S972.22,397.24,977.23,397.24Z" transform="translate(-884.25 -271.19)" style="fill:#20201e;fill-rule:evenodd"/></g><path d="M923.21,431.35l17.51-10.59-3.61-18L917.53,406l-0.28,0-8,15.08,0,0a47.06,47.06,0,0,0,10.06,8Q921.19,430.31,923.21,431.35Z" transform="translate(-884.25 -271.19)" style="fill:none;stroke:#20201e;stroke-linecap:round;stroke-linejoin:round;stroke-width:1.4998px;fill-rule:evenodd"/><polygon points="131.3 169.69 132.11 170.6 141.63 188.88 140.83 187.97 131.3 169.69" style="fill:#214c61;stroke:#20201e;stroke-linecap:round;stroke-linejoin:round;stroke-width:1.4998px;fill-rule:evenodd"/><polygon points="140.83 187.97 141.63 188.88 114.88 211.06 114.07 210.15 140.83 187.97" style="fill:#214c61;stroke:#20201e;stroke-linecap:round;stroke-linejoin:round;stroke-width:1.4998px;fill-rule:evenodd"/><polygon points="114.07 210.15 123.94 171.6 131.3 169.69 140.83 187.97 140.83 187.97 114.07 210.15" style="fill:#e4e3d1;fill-rule:evenodd"/><g style="clip-path:url(#clip-path-6)"><path d="M998.29,487.4c-41.92,0-73.48-25.3-70.68-56.56h76.15Z" transform="translate(-884.25 -271.19)" style="fill:#61a86d;fill-rule:evenodd"/><path d="M1079.9,430.83c-3.24,31.26-39.67,56.55-81.58,56.56h0l5.46-56.56h76.15Z" transform="translate(-884.25 -271.19)" style="fill:#2e6095;fill-rule:evenodd"/><path d="M1003.75,430.83H927.6v-0.15c0-.05,0-0.11,0-0.16,3-31.41,39.59-56.87,81.64-56.87Z" transform="translate(-884.25 -271.19)" style="fill:#cd5b55;fill-rule:evenodd"/><path d="M1009.27,373.66h0.19c42,0.08,73.49,25.51,70.46,56.87,0,0.09,0,.19,0,0.28v0h-76.15Z" transform="translate(-884.25 -271.19)" style="fill:#71bbe8;fill-rule:evenodd"/><path d="M1007.86,388.24c31.27,0,54.8,18.93,52.54,42.29S1031,472.82,999.7,472.82s-54.8-18.93-52.54-42.29S976.59,388.24,1007.86,388.24Z" transform="translate(-884.25 -271.19)" style="fill:#214c61;stroke:#20201e;stroke-linecap:round;stroke-linejoin:round;stroke-width:1.4998px;fill-rule:evenodd"/><path d="M1005.25,415.35c11.22,0,19.67,6.8,18.86,15.18s-10.56,15.18-21.79,15.18-19.67-6.8-18.86-15.18S994,415.35,1005.25,415.35Z" transform="translate(-884.25 -271.19)" style="fill:#fff;fill-rule:evenodd"/><path d="M1004.45,423.63c5.1,0,8.94,3.09,8.57,6.9s-4.8,6.9-9.91,6.9-8.94-3.09-8.57-6.9S999.34,423.63,1004.45,423.63Z" transform="translate(-884.25 -271.19)" style="fill:#20201e;fill-rule:evenodd"/></g><polygon points="114.07 210.15 123.94 171.6 131.3 169.69 140.83 187.97 140.83 187.97 114.07 210.15" style="fill:none;stroke:#20201e;stroke-linecap:round;stroke-linejoin:round;stroke-width:1.4998px;fill-rule:evenodd"/><polygon points="161.76 222.04 161.41 222.04 161.06 222.04 160.72 222.04 160.37 222.04 160.03 222.03 159.68 222.02 159.34 222.02 158.99 222.01 158.9 222 158.9 207.32 158.99 207.32 159.34 207.33 159.68 207.34 160.03 207.34 160.37 207.35 160.72 207.35 161.06 207.36 161.41 207.36 161.76 207.36 161.82 207.36 162.42 207.35 163.02 207.35 163.62 207.34 164.22 207.33 164.81 207.31 165.41 207.29 166 207.27 166.6 207.24 167.19 207.22 167.78 207.18 168.37 207.15 168.96 207.11 169.55 207.06 170.14 207.02 170.73 206.97 171.31 206.92 173.06 206.74 174.79 206.54 176.51 206.3 178.23 206.04 179.93 205.75 181.62 205.44 183.3 205.1 184.96 204.73 186.61 204.33 188.25 203.91 189.88 203.46 191.49 202.99 193.08 202.49 194.66 201.97 196.22 201.43 197.77 200.85 199.3 200.26 200.81 199.64 202.31 199 203.78 198.34 205.24 197.66 206.68 196.95 208.1 196.22 209.5 195.47 210.87 194.7 212.23 193.91 213.56 193.1 214.88 192.26 216.16 191.41 217.43 190.54 218.67 189.65 219.89 188.75 219.89 203.43 218.67 204.34 217.43 205.23 216.16 206.1 214.88 206.95 213.56 207.78 212.23 208.59 210.87 209.39 209.5 210.16 208.1 210.91 206.68 211.64 205.24 212.34 203.78 213.03 202.31 213.69 200.81 214.33 199.3 214.95 197.77 215.54 196.22 216.11 194.66 216.66 193.08 217.18 191.49 217.68 189.88 218.15 188.25 218.6 186.61 219.02 184.96 219.41 183.3 219.78 181.62 220.13 179.93 220.44 178.23 220.73 176.51 220.99 174.79 221.22 173.06 221.43 171.31 221.6 170.73 221.66 170.14 221.71 169.55 221.75 168.96 221.79 168.37 221.83 167.78 221.87 167.19 221.9 166.6 221.93 166 221.96 165.41 221.98 164.81 222 164.22 222.01 163.62 222.03 163.02 222.04 162.42 222.04 161.82 222.04 161.76 222.04" style="fill:#214c61;stroke:#20201e;stroke-linecap:round;stroke-linejoin:round;stroke-width:1.4998px;fill-rule:evenodd"/><path d="M1046,478.55q-1.39,0-2.76,0h-0.1l29.66-28.19,0.23,0,25.31,1.79,2.89,3.89,2.91,3.92c-12.86,9.78-29.93,16.45-48.58,18.17q-4.69.43-9.49,0.44H1046Z" transform="translate(-884.25 -271.19)" style="fill:#e4e3d1;fill-rule:evenodd"/><g style="clip-path:url(#clip-path-7)"><path d="M1046,478.55c-41.92,0-73.48-25.3-70.68-56.56h76.15Z" transform="translate(-884.25 -271.19)" style="fill:#61a86d;fill-rule:evenodd"/><path d="M1127.62,422c-3.24,31.26-39.67,56.55-81.58,56.56h0l5.46-56.56h76.15Z" transform="translate(-884.25 -271.19)" style="fill:#2e6095;fill-rule:evenodd"/><path d="M1051.47,422H975.33v-0.3c3-31.41,39.59-56.87,81.64-56.87Z" transform="translate(-884.25 -271.19)" style="fill:#cd5b55;fill-rule:evenodd"/><path d="M1057,364.82h0.19c42,0.08,73.49,25.51,70.46,56.87,0,0.09,0,.19,0,0.28v0h-76.15Z" transform="translate(-884.25 -271.19)" style="fill:#71bbe8;fill-rule:evenodd"/><path d="M1055.59,379.4c31.27,0,54.8,18.93,52.54,42.29S1078.69,464,1047.42,464s-54.8-18.93-52.54-42.29S1024.31,379.4,1055.59,379.4Z" transform="translate(-884.25 -271.19)" style="fill:#214c61;stroke:#20201e;stroke-linecap:round;stroke-linejoin:round;stroke-width:1.4998px;fill-rule:evenodd"/><path d="M1053,406.51c11.22,0,19.67,6.79,18.86,15.18s-10.56,15.18-21.79,15.18-19.67-6.8-18.86-15.18S1041.74,406.51,1053,406.51Z" transform="translate(-884.25 -271.19)" style="fill:#fff;fill-rule:evenodd"/><path d="M1052.17,414.79c5.1,0,8.94,3.09,8.57,6.9s-4.8,6.9-9.91,6.9-8.94-3.09-8.57-6.9S1047.07,414.79,1052.17,414.79Z" transform="translate(-884.25 -271.19)" style="fill:#20201e;fill-rule:evenodd"/></g><path d="M1046,478.55q-1.39,0-2.76,0h-0.1l29.66-28.19,0.23,0,25.31,1.79,2.89,3.89,2.91,3.92c-12.86,9.78-29.93,16.45-48.58,18.17q-4.69.43-9.49,0.44H1046Z" transform="translate(-884.25 -271.19)" style="fill:none;stroke:#20201e;stroke-linecap:round;stroke-linejoin:round;stroke-width:1.4998px;fill-rule:evenodd"/><polygon points="80.55 138.7 78.57 151.08 78.57 151.08 80.55 138.7 80.55 138.7" style="fill:#214c61;stroke:#20201e;stroke-linecap:round;stroke-linejoin:round;stroke-width:1.4998px;fill-rule:evenodd"/><polygon points="80.55 138.7 78.57 151.08 78.57 151.07 80.55 138.69 80.55 138.7" style="fill:#214c61;stroke:#20201e;stroke-linecap:round;stroke-linejoin:round;stroke-width:1.4998px;fill-rule:evenodd"/><polygon points="80.55 138.69 78.57 151.07 76.61 134.05 78.59 121.67 80.55 138.69" style="fill:#4b7187;stroke:#20201e;stroke-linecap:round;stroke-linejoin:round;stroke-width:1.4998px;fill-rule:evenodd"/><polygon points="108.23 129.17 106.26 141.55 103.1 152.57 105.08 140.19 108.23 129.17" style="fill:#214c61;stroke:#20201e;stroke-linecap:round;stroke-linejoin:round;stroke-width:1.4998px;fill-rule:evenodd"/><polygon points="105.08 140.19 103.1 152.57 103.1 152.57 105.08 140.19 105.08 140.19" style="fill:#214c61;stroke:#20201e;stroke-linecap:round;stroke-linejoin:round;stroke-width:1.4998px;fill-rule:evenodd"/><polygon points="105.08 140.19 103.1 152.57 78.57 151.08 80.55 138.7 105.08 140.19" style="fill:#214c61;stroke:#20201e;stroke-linecap:round;stroke-linejoin:round;stroke-width:1.4998px;fill-rule:evenodd"/><polygon points="80.55 138.7 80.55 138.7 80.55 138.69 78.59 121.67 78.79 121.75 108.23 129.17 105.08 140.19 105.08 140.19 80.55 138.7" style="fill:#e4e3d1;fill-rule:evenodd"/><g style="clip-path:url(#clip-path-8)"><path d="M985.93,429.86c-27.72,0-48.59-16.73-46.74-37.41h50.36Z" transform="translate(-884.25 -271.19)" style="fill:#61a86d;fill-rule:evenodd"/><path d="M1039.9,392.46c-2.14,20.67-26.24,37.4-54,37.41h0l3.61-37.41h50.36Z" transform="translate(-884.25 -271.19)" style="fill:#2e6095;fill-rule:evenodd"/><path d="M989.54,392.46H939.19v-0.2c2-20.77,26.18-37.61,54-37.61Z" transform="translate(-884.25 -271.19)" style="fill:#cd5b55;fill-rule:evenodd"/><path d="M993.2,354.65h0.13c27.75,0.05,48.6,16.87,46.6,37.61,0,0.06,0,.12,0,0.19H989.54Z" transform="translate(-884.25 -271.19)" style="fill:#71bbe8;fill-rule:evenodd"/><path d="M992.26,364.29c20.68,0,36.24,12.52,34.74,28s-19.47,28-40.15,28-36.24-12.52-34.75-28S971.58,364.29,992.26,364.29Z" transform="translate(-884.25 -271.19)" style="fill:#214c61;stroke:#20201e;stroke-linecap:round;stroke-linejoin:round;stroke-width:1.4998px;fill-rule:evenodd"/><path d="M990.53,382.22c7.42,0,13,4.49,12.47,10s-7,10-14.41,10-13-4.49-12.47-10S983.11,382.22,990.53,382.22Z" transform="translate(-884.25 -271.19)" style="fill:#fff;fill-rule:evenodd"/><path d="M990,387.7c3.37,0,5.91,2,5.67,4.56s-3.18,4.56-6.55,4.56-5.91-2-5.67-4.56S986.63,387.7,990,387.7Z" transform="translate(-884.25 -271.19)" style="fill:#20201e;fill-rule:evenodd"/></g><polygon points="80.55 138.7 80.55 138.7 80.55 138.69 78.59 121.67 78.79 121.75 108.23 129.17 105.08 140.19 105.08 140.19 80.55 138.7" style="fill:none;stroke:#20201e;stroke-linecap:round;stroke-linejoin:round;stroke-width:1.4998px;fill-rule:evenodd"/><polygon points="226.21 171.51 226.21 184.39 242.22 182.71 242.22 169.84 226.21 171.51" style="fill:#214c61;stroke:#20201e;stroke-linecap:round;stroke-linejoin:round;stroke-width:1.4998px;fill-rule:evenodd"/><path d="M1110.46,442.71l16-1.68c-0.09-.45-0.2-0.9-0.32-1.35-1.23-4.59-6.37-10.08-14.07-12.34Z" transform="translate(-884.25 -271.19)" style="fill:#71bbe8;fill-rule:evenodd"/><g style="clip-path:url(#clip-path-9)"><path d="M986.41,530c-21.85-7-38.29-29-36.84-49.24l39.68,12.75Z" transform="translate(-884.25 -271.19)" style="fill:#61a86d;fill-rule:evenodd"/></g><path d="M1110.46,442.71l16-1.68c-0.09-.45-0.2-0.9-0.32-1.35-1.23-4.59-6.37-10.08-14.07-12.34Z" transform="translate(-884.25 -271.19)" style="fill:none;stroke:#20201e;stroke-linecap:round;stroke-linejoin:round;stroke-width:1.4998px;fill-rule:evenodd"/><polygon points="107.58 227.88 107.58 242.93 97.25 257.04 97.25 242 107.58 227.88" style="fill:#214c61;stroke:#20201e;stroke-linecap:round;stroke-linejoin:round;stroke-width:1.4998px;fill-rule:evenodd"/><polygon points="97.25 242 97.25 257.04 79.64 250.48 79.64 235.44 97.25 242" style="fill:#214c61;stroke:#20201e;stroke-linecap:round;stroke-linejoin:round;stroke-width:1.4998px;fill-rule:evenodd"/><polygon points="79.64 235.44 82.66 226.34 107.58 227.88 97.25 242 79.64 235.44" style="fill:#61a86d;stroke:#20201e;stroke-linecap:round;stroke-linejoin:round;stroke-width:1.4998px;fill-rule:evenodd"/><polygon points="92.88 195.99 96.09 206.34 94.34 206.27 92.6 206.18 90.87 206.06 89.16 205.91 87.47 205.72 85.79 205.52 84.12 205.28 82.47 205.02 80.84 204.73 79.22 204.41 77.63 204.06 76.04 203.69 74.48 203.3 72.94 202.88 71.41 202.43 69.9 201.96 68.42 201.46 66.95 200.94 65.5 200.39 64.08 199.82 62.67 199.23 61.29 198.62 59.93 197.98 58.59 197.32 57.28 196.64 55.99 195.94 54.72 195.21 53.47 194.47 52.25 193.7 51.06 192.91 49.89 192.11 48.75 191.28 45.54 180.94 46.69 181.76 47.86 182.57 49.05 183.36 50.27 184.12 51.52 184.87 52.78 185.59 54.08 186.3 55.39 186.98 56.73 187.64 58.09 188.28 59.47 188.89 60.87 189.48 62.3 190.05 63.75 190.6 65.22 191.12 66.7 191.61 68.21 192.09 69.73 192.53 71.28 192.96 72.84 193.35 74.42 193.72 76.02 194.07 77.64 194.38 79.27 194.67 80.92 194.94 82.58 195.17 84.26 195.38 85.96 195.56 87.67 195.71 89.39 195.84 91.13 195.93 92.88 195.99" style="fill:#214c61;stroke:#20201e;stroke-linecap:round;stroke-linejoin:round;stroke-width:1.4998px;fill-rule:evenodd"/><polygon points="100.88 168.09 104.08 178.43 96.09 206.34 92.88 195.99 100.88 168.09" style="fill:#214c61;stroke:#20201e;stroke-linecap:round;stroke-linejoin:round;stroke-width:1.4998px;fill-rule:evenodd"/><path d="M977.13,467.19c-18.76-.52-35.28-6.14-47.34-15.06L948,437l37.09,2.26Z" transform="translate(-884.25 -271.19)" style="fill:#e4e3d1;fill-rule:evenodd"/><g style="clip-path:url(#clip-path-10)"><path d="M980,467.23c-41.92,0-73.48-25.3-70.68-56.56h76.15Z" transform="translate(-884.25 -271.19)" style="fill:#61a86d;fill-rule:evenodd"/><path d="M1061.61,410.66c-3.24,31.26-39.67,56.55-81.58,56.56h0l5.47-56.56h76.15Z" transform="translate(-884.25 -271.19)" style="fill:#2e6095;fill-rule:evenodd"/><path d="M985.46,410.66H909.31v-0.15c0-.05,0-0.11,0-0.16,3-31.41,39.59-56.87,81.64-56.87Z" transform="translate(-884.25 -271.19)" style="fill:#cd5b55;fill-rule:evenodd"/><path d="M991,353.49h0.19c42,0.08,73.49,25.51,70.46,56.87l0,0.28v0H985.46Z" transform="translate(-884.25 -271.19)" style="fill:#71bbe8;fill-rule:evenodd"/><path d="M989.57,368.07c31.27,0,54.8,18.93,52.54,42.29s-29.44,42.29-60.71,42.29-54.79-18.93-52.54-42.29S958.3,368.07,989.57,368.07Z" transform="translate(-884.25 -271.19)" style="fill:#214c61;stroke:#20201e;stroke-linecap:round;stroke-linejoin:round;stroke-width:1.4998px;fill-rule:evenodd"/><path d="M987,395.18c11.22,0,19.67,6.79,18.86,15.18S995.25,425.54,984,425.54s-19.67-6.8-18.86-15.18S975.73,395.18,987,395.18Z" transform="translate(-884.25 -271.19)" style="fill:#fff;fill-rule:evenodd"/><path d="M986.16,403.46c5.1,0,8.94,3.09,8.57,6.9s-4.8,6.9-9.91,6.9-8.94-3.09-8.57-6.9S981.05,403.46,986.16,403.46Z" transform="translate(-884.25 -271.19)" style="fill:#20201e;fill-rule:evenodd"/></g><path d="M977.13,467.19c-18.76-.52-35.28-6.14-47.34-15.06L948,437l37.09,2.26Z" transform="translate(-884.25 -271.19)" style="fill:none;stroke:#20201e;stroke-linecap:round;stroke-linejoin:round;stroke-width:1.4998px;fill-rule:evenodd"/><path d="M1115.92,401.55c10.43,3.6,20.53,16.17,23.84,27.73" transform="translate(-884.25 -271.19)" style="fill:none;stroke:#20201e;stroke-linecap:round;stroke-linejoin:round;stroke-width:2.4999000000000002px;fill-rule:evenodd"/><circle cx="255.96" cy="162.33" r="4.79" style="fill:#20201e"/><path d="M949.24,471c-11.14,1.94-25,13.4-33.47,27.66" transform="translate(-884.25 -271.19)" style="fill:none;stroke:#20201e;stroke-linecap:round;stroke-linejoin:round;stroke-width:2.4999000000000002px;fill-rule:evenodd"/><path d="M914.25,483.47c5.55,0,5.07,17.34.85,17.34-2,0-4.45-4.1-4.45-8.81S912.26,483.47,914.25,483.47Z" transform="translate(-884.25 -271.19)" style="fill:#20201e;fill-rule:evenodd"/><path d="M1060,484.56c10.08,5.13,19.93,20.13,23.88,36.26" transform="translate(-884.25 -271.19)" style="fill:none;stroke:#20201e;stroke-linecap:round;stroke-linejoin:round;stroke-width:2.4996px;fill-rule:evenodd"/><path d="M1089.84,506.75c-5.3-1.63-9.94,15.09-5.89,16.33,1.9,0.58,5.46-2.61,6.84-7.12S1091.75,507.33,1089.84,506.75Z" transform="translate(-884.25 -271.19)" style="fill:#20201e;fill-rule:evenodd"/></svg>